<?xml version="1.0" encoding="UTF-8" standalone="no"?>
<!-- Created with Inkscape (http://www.inkscape.org/) -->

<svg
   width="90.730042mm"
   height="25.373541mm"
   viewBox="0 0 90.730042 25.373541"
   version="1.1"
   id="svg5"
   inkscape:version="1.1 (c68e22c387, 2021-05-23)"
   sodipodi:docname="business2.0_is_rendanheyi.svg"
   xmlns:inkscape="http://www.inkscape.org/namespaces/inkscape"
   xmlns:sodipodi="http://sodipodi.sourceforge.net/DTD/sodipodi-0.dtd"
   xmlns="http://www.w3.org/2000/svg"
   xmlns:svg="http://www.w3.org/2000/svg"
   xmlns:rdf="http://www.w3.org/1999/02/22-rdf-syntax-ns#"
   xmlns:cc="http://creativecommons.org/ns#"
   xmlns:dc="http://purl.org/dc/elements/1.1/">
  <title
     id="title12095">Business 2.0 and Ren Dan He Yi</title>
  <sodipodi:namedview
     id="namedview7"
     pagecolor="#ffffff"
     bordercolor="#666666"
     borderopacity="1.0"
     inkscape:pageshadow="2"
     inkscape:pageopacity="0.0"
     inkscape:pagecheckerboard="0"
     inkscape:document-units="mm"
     showgrid="false"
     inkscape:zoom="0.69664703"
     inkscape:cx="-22.967155"
     inkscape:cy="18.660813"
     inkscape:window-width="1920"
     inkscape:window-height="986"
     inkscape:window-x="-11"
     inkscape:window-y="-11"
     inkscape:window-maximized="1"
     inkscape:current-layer="layer1"
     fit-margin-top="0"
     fit-margin-left="0"
     fit-margin-right="0"
     fit-margin-bottom="0" />
  <defs
     id="defs2" />
  <g
     inkscape:label="Layer 1"
     inkscape:groupmode="layer"
     id="layer1"
     transform="translate(-9.8177191,-63.272313)">
    <g
       id="g27"
       transform="matrix(0.26458333,0,0,0.26458333,260.65854,-188.8756)">
      <path
         d="m -885.3,1033.8 c -0.2,-1.1 -0.9,-2.1 -2,-2.5 -1.2,-0.4 -2.3,-0.9 -3.4,-1.5 l -2.6,-1.4 c -0.6,0 -1.1,0.4 -1.2,0.9 l -3.2,7 -0.4,-4.5 c 0.5,-0.2 0.8,-0.6 0.8,-1.2 v -0.6 c 0,-0.3 -0.1,-0.5 -0.3,-0.7 -0.5,0.2 -1,0.2 -1.5,0.2 -0.5,0 -1,-0.1 -1.5,-0.2 -0.2,0.2 -0.3,0.5 -0.3,0.7 v 0.6 c 0,0.5 0.4,1 0.8,1.2 l -0.4,4.5 -3.2,-7 c -0.1,-0.6 -0.6,-0.9 -1.2,-0.9 l -2.6,1.4 c -1.1,0.6 -2.3,1 -3.5,1.5 -1,0.4 -1.8,1.4 -1.9,2.5 v 0 c -0.3,1.8 -0.3,3.5 -0.2,5.3 0.1,1.7 0.6,3.8 0.9,5.4 0.3,1.3 1.3,2.3 2.6,2.6 2.7,0.7 7.3,1.8 10.4,1.8 3.2,0 7.9,-1.1 10.5,-1.8 1.3,-0.3 2.3,-1.4 2.6,-2.7 0.4,-1.5 0.8,-3.6 0.9,-5.3 0.3,-1.7 0.2,-3.5 -0.1,-5.3 0,0 0,0 0,0 z"
         id="path9" />
      <path
         d="m -905.3,1022 c 0.5,4.3 3.7,6.8 6.3,6.8 2.6,0 5.8,-2.4 6.3,-6.8 0.4,0 0.6,-0.7 0.6,-1.6 0,-0.8 0.2,-1.8 -0.2,-2.1 -0.1,-0.1 -0.3,-0.1 -0.5,0 -0.6,-3.6 -2.4,-5.9 -6.1,-5.9 -3.7,0 -5.6,2.3 -6.1,5.9 -0.2,-0.1 -0.4,-0.1 -0.5,0 -0.4,0.3 -0.2,1.3 -0.2,2.1 -0.2,0.9 0,1.6 0.4,1.6 z"
         id="path11" />
      <path
         d="m -920.2,976.5 c -0.2,-1.1 -0.9,-2.1 -2,-2.5 -1.2,-0.4 -2.3,-0.9 -3.4,-1.5 l -2.6,-1.4 c -0.6,0 -1.1,0.4 -1.2,0.9 l -3.2,7 -0.4,-4.5 c 0.5,-0.2 0.8,-0.6 0.8,-1.2 v -0.6 c 0,-0.3 -0.1,-0.5 -0.3,-0.7 -0.5,0.2 -1,0.2 -1.5,0.2 -0.5,0 -1,-0.1 -1.5,-0.2 -0.2,0.2 -0.3,0.5 -0.3,0.7 v 0.6 c 0,0.5 0.4,1 0.8,1.2 l -0.4,4.5 -3.2,-7 c -0.1,-0.6 -0.6,-0.9 -1.2,-0.9 l -2.6,1.4 c -1.1,0.6 -2.3,1 -3.5,1.5 -1,0.4 -1.8,1.4 -1.9,2.5 v 0 c -0.3,1.8 -0.3,3.5 -0.2,5.3 0.1,1.7 0.6,3.8 0.9,5.4 0.3,1.3 1.3,2.3 2.6,2.6 2.7,0.7 7.3,1.8 10.4,1.8 3.2,0 7.9,-1.1 10.5,-1.8 1.3,-0.3 2.3,-1.4 2.6,-2.7 0.4,-1.5 0.8,-3.6 0.9,-5.3 0.2,-1.8 0.1,-3.6 -0.1,-5.3 0,0 0,0 0,0 z"
         id="path13" />
      <path
         d="m -940.2,964.7 c 0.5,4.3 3.7,6.8 6.3,6.8 2.6,0 5.8,-2.4 6.3,-6.8 0.4,0 0.6,-0.7 0.6,-1.6 0,-0.8 0.2,-1.8 -0.2,-2.1 -0.1,-0.1 -0.3,-0.1 -0.5,0 -0.6,-3.6 -2.4,-5.9 -6.1,-5.9 -3.7,0 -5.6,2.3 -6.1,5.9 -0.2,-0.1 -0.4,-0.1 -0.5,0 -0.4,0.3 -0.2,1.3 -0.2,2.1 -0.2,0.8 -0.1,1.5 0.4,1.6 z"
         id="path15" />
      <path
         d="m -850.3,976.5 c 0,0 0,0 0,0 -0.2,-1.2 -0.9,-2.1 -2,-2.5 -1.2,-0.4 -2.3,-0.9 -3.4,-1.5 l -2.6,-1.4 c -0.6,0 -1.1,0.4 -1.2,0.9 l -3.2,7 -0.4,-4.5 c 0.5,-0.2 0.8,-0.6 0.8,-1.2 v -0.6 c 0,-0.3 -0.1,-0.5 -0.3,-0.7 -0.5,0.2 -1,0.2 -1.5,0.2 -0.5,0 -1,-0.1 -1.5,-0.2 -0.2,0.2 -0.3,0.5 -0.3,0.7 v 0.6 c 0,0.5 0.4,1 0.8,1.2 l -0.4,4.5 -3.2,-7 c -0.1,-0.6 -0.6,-0.9 -1.2,-0.9 l -2.6,1.4 c -1.1,0.6 -2.3,1 -3.5,1.5 -1,0.4 -1.8,1.4 -1.9,2.5 v 0 c -0.3,1.8 -0.3,3.5 -0.2,5.3 0.1,1.7 0.6,3.8 0.9,5.4 0.3,1.3 1.3,2.3 2.6,2.6 2.7,0.7 7.3,1.8 10.4,1.8 3.2,0 7.9,-1.1 10.5,-1.8 1.3,-0.3 2.3,-1.4 2.6,-2.7 0.4,-1.5 0.8,-3.6 0.9,-5.3 0.3,-1.8 0.2,-3.6 -0.1,-5.3 z"
         id="path17" />
      <path
         d="m -870.3,964.7 c 0.5,4.3 3.7,6.8 6.3,6.8 2.6,0 5.8,-2.4 6.3,-6.8 0.4,0 0.6,-0.7 0.6,-1.6 0,-0.8 0.2,-1.8 -0.2,-2.1 -0.1,-0.1 -0.3,-0.1 -0.5,0 -0.6,-3.6 -2.4,-5.9 -6.1,-5.9 -3.7,0 -5.6,2.3 -6.1,5.9 -0.2,-0.1 -0.4,-0.1 -0.5,0 -0.4,0.3 -0.2,1.3 -0.2,2.1 -0.2,0.8 0,1.5 0.4,1.6 z"
         id="path19" />
      <path
         d="m -882.3,956.3 c -5.3,-2.2 -11,-3.3 -16.8,-3.3 -5.8,0 -11.5,1.1 -16.8,3.3 -1.4,0.6 -2.1,2.2 -1.5,3.6 0.6,1.4 2.2,2.1 3.6,1.5 4.7,-1.9 9.6,-2.9 14.7,-2.9 5.1,0 10,1 14.7,2.9 1.4,0.6 3.1,-0.1 3.6,-1.5 0.5,-1.4 -0.1,-3 -1.5,-3.6 z"
         id="path21" />
      <path
         d="m -856.9,1001 c -0.1,0 -0.3,0 -0.4,0 -1.4,0 -2.6,1 -2.8,2.4 -0.7,5 -2.3,9.7 -4.9,14.2 -2.5,4.4 -5.9,8.2 -9.8,11.3 -1.2,0.9 -1.4,2.7 -0.5,3.9 0.9,1.2 2.7,1.4 3.9,0.5 4.5,-3.5 8.3,-7.9 11.2,-12.9 2.9,-5 4.8,-10.5 5.6,-16.2 0.3,-1.6 -0.8,-3 -2.3,-3.2 z"
         id="path23" />
      <path
         d="m -923.2,1028.9 c -4,-3.1 -7.3,-6.9 -9.8,-11.3 -2.5,-4.4 -4.2,-9.2 -4.9,-14.2 -0.2,-1.4 -1.4,-2.4 -2.8,-2.4 -0.1,0 -0.3,0 -0.4,0 -1.5,0.2 -2.6,1.6 -2.4,3.1 0.8,5.7 2.7,11.2 5.6,16.2 2.9,5 6.7,9.4 11.2,12.9 1.2,0.9 3,0.7 3.9,-0.5 1,-1.1 0.8,-2.8 -0.4,-3.8 z"
         id="path25" />
    </g>
    <text
       xml:space="preserve"
       style="font-style:normal;font-variant:normal;font-weight:normal;font-stretch:normal;font-size:4.23333px;line-height:1.25;font-family:sans-serif;-inkscape-font-specification:'sans-serif, Normal';font-variant-ligatures:normal;font-variant-caps:normal;font-variant-numeric:normal;font-variant-east-asian:normal;fill:#ff0000;fill-opacity:1;stroke:none;stroke-width:0.264583"
       x="31.360258"
       y="86.929413"
       id="text2841"><tspan
         sodipodi:role="line"
         id="tspan2839"
         style="font-style:normal;font-variant:normal;font-weight:normal;font-stretch:normal;font-size:4.23333px;font-family:sans-serif;-inkscape-font-specification:'sans-serif, Normal';font-variant-ligatures:normal;font-variant-caps:normal;font-variant-numeric:normal;font-variant-east-asian:normal;fill:#ff0000;stroke-width:0.264583"
         x="31.360258"
         y="86.929413">2.0</tspan></text>
    <text
       xml:space="preserve"
       style="font-style:normal;font-weight:normal;font-size:10.5833px;line-height:1.25;font-family:sans-serif;fill:#000000;fill-opacity:1;stroke:none;stroke-width:0.264583"
       x="42.157288"
       y="79.377243"
       id="text5581"><tspan
         sodipodi:role="line"
         id="tspan5579"
         style="stroke-width:0.264583"
         x="42.157288"
         y="79.377243">≡</tspan></text>
    <text
       xml:space="preserve"
       style="font-style:normal;font-weight:normal;font-size:10.5833px;line-height:1.25;font-family:sans-serif;fill:#000000;fill-opacity:1;stroke:none;stroke-width:0.264583"
       x="56.209721"
       y="78.997444"
       id="text10175"><tspan
         sodipodi:role="line"
         id="tspan10173"
         style="stroke-width:0.264583"
         x="56.209721"
         y="78.997444">人单合一</tspan></text>
  </g>
  <metadata
     id="metadata12093">
    <rdf:RDF>
      <cc:Work
         rdf:about="">
        <cc:license
           rdf:resource="http://creativecommons.org/licenses/by-sa/4.0/" />
        <dc:title>Business 2.0 and Ren Dan He Yi</dc:title>
        <dc:creator>
          <cc:Agent>
            <dc:title>FrenchTouch.dev</dc:title>
          </cc:Agent>
        </dc:creator>
        <dc:contributor>
          <cc:Agent>
            <dc:title>sebas, oberron</dc:title>
          </cc:Agent>
        </dc:contributor>
      </cc:Work>
      <cc:License
         rdf:about="http://creativecommons.org/licenses/by-sa/4.0/">
        <cc:permits
           rdf:resource="http://creativecommons.org/ns#Reproduction" />
        <cc:permits
           rdf:resource="http://creativecommons.org/ns#Distribution" />
        <cc:requires
           rdf:resource="http://creativecommons.org/ns#Notice" />
        <cc:requires
           rdf:resource="http://creativecommons.org/ns#Attribution" />
        <cc:permits
           rdf:resource="http://creativecommons.org/ns#DerivativeWorks" />
        <cc:requires
           rdf:resource="http://creativecommons.org/ns#ShareAlike" />
      </cc:License>
    </rdf:RDF>
  </metadata>
</svg>
