<?xml version="1.0" encoding="UTF-8" standalone="no"?>
<svg version="1.2" xmlns="http://www.w3.org/2000/svg" xmlns:xlink="http://www.w3.org/1999/xlink" viewBox="0 0 1000 500">

    <defs>
    
    <linearGradient
       id="Grad_Logo1"
       x1="61"
       y1="117"
       x2="259"
       y2="127"
       gradientUnits="userSpaceOnUse"
       gradientTransform="matrix(0.26458333,0,0,0.26458333,43.340886,94.000009)">
      <stop
         style="stop-color:#0064e1"
         offset="0"
         id="stop972" />
      <stop
         style="stop-color:#0064e1"
         offset="0.4"
         id="stop974" />
      <stop
         style="stop-color:#0073ee"
         offset="0.83"
         id="stop976" />
      <stop
         style="stop-color:#0082fb"
         offset="1"
         id="stop978" />
    </linearGradient>
    <linearGradient
       id="Grad_Logo2"
       x1="45"
       y1="139"
       x2="45"
       y2="66"
       gradientUnits="userSpaceOnUse"
       gradientTransform="matrix(0.26458333,0,0,0.26458333,43.340886,94.000009)">
      <stop
         style="stop-color:#0082fb"
         offset="0"
         id="stop981" />
      <stop
         style="stop-color:#0064e0"
         offset="1"
         id="stop983" />
    </linearGradient>
  
    <g id="YouTube">
        <path d="M498.333 45.7s-2.91-20.443-11.846-29.447C475.157 4.44 462.452 4.38 456.627 3.687c-41.7-3-104.25-3-104.25-3h-.13s-62.555 0-104.255 3c-5.826.693-18.523.753-29.86 12.566-8.933 9.004-11.84 29.447-11.84 29.447s-2.983 24.003-2.983 48.009v22.507c0 24.006 2.983 48.013 2.983 48.013s2.907 20.44 11.84 29.446c11.337 11.817 26.23 11.44 32.86 12.677 23.84 2.28 101.315 2.983 101.315 2.983s62.62-.094 104.32-3.093c5.824-.694 18.527-.75 29.857-12.567 8.936-9.006 11.846-29.446 11.846-29.446s2.98-24.007 2.98-48.013V93.709c0-24.006-2.98-48.01-2.98-48.01" fill="#cd201f"/>
        <path d="M187.934 169.537h-18.96V158.56c-7.19 8.24-13.284 12.4-19.927 12.4-5.826 0-9.876-2.747-11.9-7.717-1.23-3.02-2.103-7.736-2.103-14.663V68.744h18.957v81.833c.443 2.796 1.636 3.823 4.043 3.823 3.63 0 6.913-3.153 10.93-8.817V68.744h18.96v100.793zM102.109 139.597c.996 9.98-2.1 14.93-7.987 14.93s-8.98-4.95-7.98-14.93v-39.92c-1-9.98 2.093-14.657 7.98-14.657 5.89 0 8.993 4.677 7.996 14.657l-.01 39.92zm18.96-37.923c0-10.77-2.164-18.86-5.987-23.95-5.054-6.897-12.973-9.72-20.96-9.72-9.033 0-15.913 2.823-20.957 9.72-3.886 5.09-5.97 13.266-5.97 24.036l-.016 35.84c0 10.71 1.853 18.11 5.736 23.153 5.047 6.873 13.227 10.513 21.207 10.513 7.986 0 16.306-3.64 21.36-10.513 3.823-5.043 5.586-12.443 5.586-23.153v-35.926zM46.223 114.647v54.889h-19.96v-54.89S5.582 47.358 1.314 34.815H22.27L36.277 87.38l13.936-52.566H71.17l-24.947 79.833z"/>
        <path d="M440.413 96.647c0-9.33 2.557-11.874 8.59-11.874 5.99 0 8.374 2.777 8.374 11.997v10.893l-16.964.02V96.647zm35.96 25.986l-.003-20.4c0-10.656-2.1-18.456-5.88-23.5-5.06-6.823-12.253-10.436-21.317-10.436-9.226 0-16.42 3.613-21.643 10.436-3.84 5.044-6.076 13.28-6.076 23.943v34.927c0 10.596 2.46 18.013 6.296 23.003 5.227 6.813 12.42 10.216 21.87 10.216 9.44 0 16.853-3.566 21.85-10.81 2.2-3.196 3.616-6.82 4.226-10.823.164-1.81.64-5.933.64-11.753v-2.827h-18.96c0 7.247.037 11.557-.133 12.54-1.033 4.834-3.623 7.25-8.07 7.25-6.203 0-8.826-4.636-8.76-13.843v-17.923h35.96zM390.513 140.597c0 9.98-2.353 13.806-7.563 13.806-2.973 0-6.4-1.53-9.423-4.553l.02-60.523c3.02-2.98 6.43-4.55 9.403-4.55 5.21 0 7.563 2.93 7.563 12.91v42.91zm2.104-72.453c-6.647 0-13.253 4.087-19.09 11.27l.02-43.603h-17.963V169.54h17.963l.027-10.05c6.036 7.47 12.62 11.333 19.043 11.333 7.193 0 12.45-3.85 14.863-11.267 1.203-4.226 1.993-10.733 1.993-19.956V99.684c0-9.447-1.21-15.907-2.416-19.917-2.41-7.466-7.247-11.623-14.44-11.623M340.618 169.537h-18.956V158.56c-7.193 8.24-13.283 12.4-19.926 12.4-5.827 0-9.877-2.747-11.9-7.717-1.234-3.02-2.107-7.736-2.107-14.663V69.744h18.96v80.833c.443 2.796 1.633 3.823 4.043 3.823 3.63 0 6.913-3.153 10.93-8.817V69.744h18.957v99.793z"/>
        <path d="M268.763 169.537h-19.956V54.77h-20.956V35.835l62.869-.024v18.96h-21.957v114.766z"/>
    </g>
  
    <g id="gafa"
     transform="translate(-21.847526,2.4684753)">
    <g id="facebook" transform="translate(-200 150)">
    <g transform="matrix(1.9788101,0,0,1.9788101,318.24948,-162.01831)">
      <path style="fill:#0081fb;stroke-width:0.264583"
         d="m 51.558844,127.32693 c 0,2.90512 0.637646,5.13556 1.471084,6.48493 1.092729,1.76742 2.722562,2.51619 4.384145,2.51619 2.143125,0 4.103688,-0.53181 7.881938,-5.75733 3.026833,-4.18836 6.593416,-10.0674 8.993187,-13.75304 l 4.064,-6.24417 c 2.823104,-4.33652 6.090708,-9.15723 9.837208,-12.424834 3.058584,-2.667 6.357938,-4.148667 9.678458,-4.148667 5.574776,0 10.884956,3.230562 14.948956,9.289521 4.44765,6.63575 6.60665,14.99394 6.60665,23.61935 0,5.12763 -1.01071,8.8953 -2.7305,11.87186 -1.66158,2.87866 -4.90008,5.75469 -10.34786,5.75469 v -8.20738 c 4.66461,0 5.82878,-4.28625 5.82878,-9.19162 0,-6.9903 -1.62984,-14.74788 -5.22023,-20.2909 -2.54794,-3.93171 -5.84994,-6.33413 -9.482671,-6.33413 -3.929062,0 -7.090833,2.96334 -10.644187,8.24707 -1.889125,2.80723 -3.828521,6.22829 -6.006041,10.08856 l -2.397125,4.24656 c -4.815417,8.53811 -6.035146,10.48279 -8.442855,13.69219 -4.220104,5.61975 -7.823729,7.74965 -12.567708,7.74965 -5.627687,0 -9.186333,-2.43682 -11.390312,-6.10923 -1.799167,-2.99244 -2.682875,-6.91886 -2.682875,-11.39296 z" />
      <path style="fill:url(#Grad_Logo1);stroke-width:0.264583"
         d="m 49.820532,103.86897 c 3.767666,-5.807607 9.204854,-9.868961 15.441083,-9.868961 3.611562,0 7.201958,1.068917 10.951104,4.130146 4.101042,3.346975 8.471958,8.858245 13.925021,17.941395 l 1.95527,3.25967 c 4.720167,7.86341 7.405688,11.90889 8.97731,13.81654 2.02142,2.45004 3.43694,3.18029 5.27579,3.18029 4.66461,0 5.82878,-4.28625 5.82878,-9.19162 l 7.24958,-0.22755 c 0,5.12763 -1.01071,8.8953 -2.7305,11.87186 -1.66158,2.87866 -4.90008,5.75469 -10.34786,5.75469 -3.38666,0 -6.387037,-0.73555 -9.704912,-3.86557 -2.550583,-2.40241 -5.532438,-6.67014 -7.826375,-10.5066 l -6.823604,-11.39825 c -3.423708,-5.72029 -6.564313,-9.98538 -8.382,-11.91683 -1.955271,-2.07698 -4.468812,-4.58523 -8.479896,-4.58523 -3.246437,0 -6.003396,2.27806 -8.310562,5.76262 z" />
      <path style="fill:url(#Grad_Logo2);stroke-width:0.264583"
         d="m 65.129323,102.26295 c -3.246437,0 -6.003396,2.27806 -8.310562,5.76262 -3.262313,4.9239 -5.259917,12.25815 -5.259917,19.30136 0,2.90512 0.637646,5.13556 1.471084,6.48493 l -7.006167,4.61434 c -1.799167,-2.99244 -2.682875,-6.91886 -2.682875,-11.39296 0,-8.13594 2.233083,-16.61584 6.479646,-23.16427 3.767666,-5.807607 9.204854,-9.868961 15.441083,-9.868961 z" />
    </g>
    </g>
    <g fill="none"
       fill-rule="evenodd"
       id="amazon"
       transform="matrix(0.3922107,0,0,0.3922107,170.87916,23.818078)">
      <path d="m 221.503,210.324 c -105.235,50.083 -170.545,8.18 -212.352,-17.271 -2.587,-1.604 -6.984,0.375 -3.169,4.757 13.928,16.888 59.573,57.593 119.153,57.593 59.621,0 95.09,-32.532 99.527,-38.207 4.407,-5.627 1.294,-8.731 -3.16,-6.872 z m 29.555,-16.322 c -2.826,-3.68 -17.184,-4.366 -26.22,-3.256 -9.05,1.078 -22.634,6.609 -21.453,9.93 0.606,1.244 1.843,0.686 8.06,0.127 6.234,-0.622 23.698,-2.826 27.337,1.931 3.656,4.79 -5.57,27.608 -7.255,31.288 -1.628,3.68 0.622,4.629 3.68,2.178 3.016,-2.45 8.476,-8.795 12.14,-17.774 3.639,-9.028 5.858,-21.622 3.71,-24.424 z"
         fill="#ff9900" />
      <path d="m 150.744,108.13 c 0,13.141 0.332,24.1 -6.31,35.77 -5.361,9.489 -13.853,15.324 -23.341,15.324 -12.952,0 -20.495,-9.868 -20.495,-24.432 0,-28.75 25.76,-33.968 50.146,-33.968 z m 34.015,82.216 c -2.23,1.992 -5.456,2.135 -7.97,0.806 -11.196,-9.298 -13.189,-13.615 -19.356,-22.487 -18.502,18.882 -31.596,24.527 -55.601,24.527 -28.37,0 -50.478,-17.506 -50.478,-52.565 0,-27.373 14.85,-46.018 35.96,-55.126 18.313,-8.066 43.884,-9.489 63.43,-11.718 v -4.365 c 0,-8.018 0.616,-17.506 -4.08,-24.432 -4.128,-6.215 -12.003,-8.777 -18.93,-8.777 -12.856,0 -24.337,6.594 -27.136,20.257 -0.57,3.037 -2.799,6.026 -5.835,6.168 L 62.028,59.124 C 59.277,58.506 56.241,56.277 57,52.054 64.543,12.394 100.36,0.438 132.43,0.438 c 16.415,0 37.858,4.365 50.81,16.795 16.415,15.323 14.849,35.77 14.849,58.02 v 52.565 c 0,15.798 6.547,22.724 12.714,31.264 2.182,3.036 2.657,6.69 -0.095,8.966 -6.879,5.74 -19.119,16.415 -25.855,22.393 l -0.095,-0.095"
         fill="#000000"/>
    </g>
    <path id="apple"
       d="m 374.95373,58.083284 c -0.58006,0.45005 -10.82108,6.22062 -10.82108,19.0519 0,14.84149 13.0313,20.092006 13.42134,20.222026 -0.06,0.32003 -2.0702,7.19071 -6.87068,14.1914 -4.28043,6.16062 -8.75088,12.31124 -15.55156,12.31124 -6.80068,0 -8.55086,-3.9504 -16.40164,-3.9504 -7.65077,0 -10.37104,4.08041 -16.59166,4.08041 -6.22063,0 -10.56106,-5.70057 -15.55156,-12.70127 -5.78057,-8.22082 -10.45104,-20.992086 -10.45104,-33.113296 0,-19.44195 12.64126,-29.75298 25.0825,-29.75298 6.61067,0 12.12122,4.34044 16.27164,4.34044 3.95039,0 10.11101,-4.60046 17.63176,-4.60046 2.85028,0 13.09131,0.26002 19.83198,9.92099 z m -23.40234,-18.15182 c 3.11031,-3.69036 5.31053,-8.81088 5.31053,-13.93139 0,-0.71007 -0.06,-1.43014 -0.19002,-2.0102 -5.0605,0.19002 -11.0811,3.37034 -14.71147,7.58076 -2.85028,3.24032 -5.51055,8.36083 -5.51055,13.55135 0,0.78008 0.13001,1.56016 0.19002,1.81018 0.32003,0.06 0.84009,0.13002 1.36014,0.13002 4.54045,0 10.25102,-3.04031 13.55135,-7.13072 z"
       
       style="stroke-width:0.10001" />
    <g
       transform="matrix(4.1666667,0,0,4.1666667,159.78086,-139.50597)"
       id="google">
      <path
         fill="#4285f4"
         d="m -3.264,51.509 c 0,-0.79 -0.07,-1.54 -0.19,-2.27 h -11.3 v 4.51 h 6.47 c -0.29,1.48 -1.14,2.73 -2.4,3.58 v 3 h 3.86 c 2.26,-2.09 3.56,-5.17 3.56,-8.82 z"
         id="path1512" />
      <path
         fill="#34a853"
         d="m -14.754,63.239 c 3.24,0 5.95,-1.08 7.93,-2.91 l -3.86,-3 c -1.08,0.72 -2.45,1.16 -4.07,1.16 -3.13,0 -5.78,-2.11 -6.73,-4.96 h -3.98 v 3.09 c 1.97,3.92 6.02,6.62 10.71,6.62 z"
         id="path1514" />
      <path
         fill="#fbbc05"
         d="m -21.484,53.529 c -0.25,-0.72 -0.38,-1.49 -0.38,-2.29 0,-0.8 0.14,-1.57 0.38,-2.29 v -3.09 h -3.98 c -0.82,1.62 -1.29,3.44 -1.29,5.38 0,1.94 0.47,3.76 1.29,5.38 z"
         id="path1516" />
      <path
         fill="#ea4335"
         d="m -14.754,43.989 c 1.77,0 3.35,0.61 4.6,1.8 l 3.42,-3.42 c -2.07,-1.94 -4.78,-3.13 -8.02,-3.13 -4.69,0 -8.74,2.7 -10.71,6.62 l 3.98,3.09 c 0.95,-2.85 3.6,-4.96 6.73,-4.96 z"
         id="path1518" />
    </g>
    <g id="MSFT" transform="translate(-500 150)">
    <g transform="matrix(4.7619048,0,0,4.7619048,576.2648,19.227969)">
      <path
         fill="#f35325"
         d="M 1,1 H 11 V 11 H 1 Z"
         id="path1618" />
      <path
         fill="#81bc06"
         d="M 12,1 H 22 V 11 H 12 Z"
         id="path1620" />
      <path
         fill="#05a6f0"
         d="M 1,12 H 11 V 22 H 1 Z"
         id="path1622" />
      <path
         fill="#ffba08"
         d="M 12,12 H 22 V 22 H 12 Z"
         id="path1624" />
    </g>
    </g>
  </g>
    <g id="SO">
    <g transform="matrix(1.3333333,0,0,-1.3333333,0,157.16)">
     <g transform="scale(0.1)">
           <path 
             style="fill:#212325;fill-opacity:1;fill-rule:nonzero;stroke:none"
             d="m 1656.86,568.617 57.57,57.578 h -117.91 v 139.981 h -62.27 V 324.172 c 0,-63.141 36.33,-114.18 108.99,-114.18 h 44.11 v 53.629 h -32.87 c -39.79,0 -57.96,23.359 -57.96,62.281 V 568.617 Z M 4881.37,343.512 V 826.246 H 4770.75 V 336.699 c 0,-62.972 38.29,-126.793 129.34,-126.793 h 62.96 v 93.61 h -42.54 c -28.08,0 -39.14,13.609 -39.14,39.996 z M 5884.28,653.25 5812.79,379.242 5721.74,653.25 h -80.83 L 5550.7,379.242 5479.23,653.25 h -117.44 l 136.15,-443.344 h 91.05 l 92.75,278.258 92.76,-278.258 h 91.05 l 135.3,443.344 z M 5225.5,323.938 c -12.76,-12.766 -29.79,-19.575 -51.91,-19.575 -22.13,0 -38.3,6.809 -51.06,19.575 C 5099.55,346.902 5097,386.055 5097,432 c 0,45.961 2.55,84.254 25.53,107.219 12.76,12.765 28.93,19.574 51.06,19.574 22.12,0 39.15,-6.809 51.91,-19.574 22.97,-22.965 25.53,-61.258 25.53,-107.219 0,-45.945 -2.56,-85.098 -25.53,-108.062 z m -51.91,334.417 c -65.53,0 -109.77,-25.523 -137,-54.457 -40,-41.699 -50.21,-91.91 -50.21,-171.898 0,-80.832 10.21,-131.043 50.21,-172.742 27.23,-28.93 71.47,-54.457 137,-54.457 65.52,0 110.62,25.527 137.85,54.457 40,41.699 50.21,91.91 50.21,172.742 0,79.988 -10.21,130.199 -50.21,171.898 -27.23,28.934 -72.33,54.457 -137.85,54.457 z m -647.76,41.11 V 210.359 h 110.63 V 559.91 h 81.69 v 84.238 h -81.69 v 48.508 c 0,25.528 12.76,39.992 39.13,39.992 h 42.56 v 93.598 h -62.98 c -90.2,0 -129.34,-63.816 -129.34,-126.781 z M 4275.38,610.707 V 653.25 H 4167.31 V 209.906 h 110.62 v 267.196 c 0,56.164 37.45,81.691 71.49,81.691 27.23,0 41.34,-9.051 58.37,-26.066 l 83.73,83.933 c -30.63,30.637 -61.27,41.695 -104.67,41.695 -47.65,0 -90.2,-22.121 -111.47,-47.648 z M 3834.8,472.852 c 0.84,19.578 3.4,31.48 10.21,47.652 11.91,26.383 36.59,45.945 74.03,45.945 37.44,0 62.12,-19.562 74.03,-45.945 6.81,-16.172 9.36,-28.074 10.22,-47.652 z m 84.24,185.503 c -114.88,0 -193.16,-81.687 -193.16,-226.355 0,-179.551 100.4,-227.199 205.07,-227.199 79.99,0 123.39,24.679 168.49,69.785 l -67.22,65.519 c -28.09,-28.085 -51.91,-41.695 -100.42,-41.695 -62.12,0 -97,41.695 -97,98.703 h 277.41 v 49.352 c 0,121.687 -69.79,211.89 -193.17,211.89 z m -304.77,-5.105 -89.35,-274.008 -90.2,274.008 h -116.58 l 163.38,-443.344 h 86.8 L 3730.85,653.25 Z M 3183.55,323.938 c -12.76,-12.766 -29.79,-19.575 -51.91,-19.575 -22.12,0 -38.29,6.809 -51.06,19.575 -22.98,22.964 -25.53,62.117 -25.53,108.062 0,45.961 2.55,84.254 25.53,107.219 12.77,12.765 28.94,19.574 51.06,19.574 22.12,0 39.15,-6.809 51.91,-19.574 22.97,-22.965 25.53,-61.258 25.53,-107.219 0,-45.945 -2.56,-85.098 -25.53,-108.062 z m -51.91,334.417 c -65.52,0 -109.77,-25.523 -137,-54.457 -39.99,-41.699 -50.21,-91.91 -50.21,-171.898 0,-80.832 10.22,-131.043 50.21,-172.742 27.23,-28.93 71.48,-54.457 137,-54.457 65.52,0 110.62,25.527 137.85,54.457 40,41.699 50.21,91.91 50.21,172.742 0,79.988 -10.21,130.199 -50.21,171.898 -27.23,28.934 -72.33,54.457 -137.85,54.457 z m -292.6,-22.16 h -77.64 l -192.97,-187.859 0.3,377.531 h -62.28 V 209.992 h 62.28 l -0.3,155.324 75.55,75.817 142.74,-231.141 h 76.97 l -176.57,274.281 z m -533.4,-50.804 c 40.65,0 65.74,-12.102 97.74,-47.563 0,0 41.7,40.524 41.35,40.891 -43.66,46.711 -80.73,62.035 -139.09,62.035 -107.26,0 -188.57,-72.656 -188.57,-217.981 0,-145.304 81.31,-217.972 188.57,-217.972 58.82,0 96.01,15.578 140.12,63.14 l -42.38,40.653 c -32,-35.461 -57.09,-48.434 -97.74,-48.434 -41.52,0 -76.12,16.434 -98.61,48.434 -19.9,27.679 -27.68,60.554 -27.68,114.179 0,53.629 7.78,86.504 27.68,114.184 22.49,32.012 57.09,48.434 98.61,48.434 z m -306.2,-224.883 c 0,-35.477 -6.93,-59.696 -21.63,-73.528 -26.82,-25.949 -58.82,-28.55 -95.15,-28.55 -67.47,0 -97.74,23.355 -97.74,72.668 0,49.293 31.14,75.242 95.15,75.242 h 119.37 z m -108.12,280.246 c -68.28,0 -111.29,-13.469 -148.98,-61.184 -0.52,-0.648 40.85,-40.882 40.85,-40.882 25.09,35.46 52.77,48.437 107.26,48.437 77.85,0 108.99,-31.145 108.99,-93.414 v -40.652 h -128.02 c -95.15,0 -147.05,-48.45 -147.05,-122.836 0,-33.731 11.25,-65.731 32,-86.5 26.82,-27.68 61.42,-38.922 120.24,-38.922 57.09,0 88.22,11.242 122.83,45.844 v -40.653 h 62.27 v 288.91 c 0,92.555 -56.22,141.852 -170.39,141.852 z m -532.58,-191.156 -68.34,6.05 c -53.62,4.321 -74.38,25.95 -74.38,62.282 0,43.246 32.86,70.062 95.15,70.062 44.11,0 83.04,-10.383 113.3,-33.726 l 40.67,40.652 c -38.07,31.129 -92.56,45.836 -153.11,45.836 -90.83,0 -156.56,-46.707 -156.56,-124.555 0,-70.066 44.11,-107.258 127.15,-114.179 l 70.07,-6.051 c 49.3,-4.336 70.93,-25.09 70.93,-62.285 0,-50.164 -43.25,-75.254 -113.32,-75.254 -52.76,0 -98.61,13.843 -132.35,49.304 l -41.51,-41.523 c 46.71,-44.977 102.93,-61.41 174.73,-61.41 102.93,0 172.99,47.578 172.99,129.742 0,79.594 -51.03,108.129 -125.42,115.055" />
        <path style="fill:#BCBBBC;fill-opacity:1;fill-rule:nonzero;stroke:none"
             d="M 840.719,105.18 V 420.691 H 945.883 V 0 H 0 V 420.691 H 105.164 V 105.18 h 735.555" />
        <path style="fill:#F48023;fill-opacity:1;fill-rule:nonzero;stroke:none"
             d="M 210.445,210.359 H 736.266 V 315.523 H 210.445 Z m 471.266,968.331 -84.383,-62.76 313.817,-421.914 84.382,62.761 z M 420.879,929.949 824.926,593.445 892.227,674.258 488.18,1010.76 Z M 288.973,696.102 765.637,474.109 810.035,569.441 333.371,791.434 Z M 220.887,449.711 735.469,341.562 757.098,444.48 242.516,552.629 220.887,449.711" />
     </g>
     </g>
    </g>
  
  
    <g id="power_law">
        <g ransform="matrix(1.266263,0,0,1.350058,-0.699168,-6.966066)"
         id="g2019">
            <g
               transform="matrix(1.055449,0,0,1.011534,-56.0384,16.70264)"
               id="Layer_4">
              <path
                 style="fill:#ccff42"
                 id="path1939"
                 d="M 181.941,358.342 L 71.983,358.342 L 71.983,0.107 L 82.983,0.107 C 82.983,0.107 91.394,156.175 100.983,199.342 C 105.649,220.347 122.34,261.845 181.941,291.892" />
              <path
                 style="fill:#ffff3e"
                 id="path1941"
                 d="M 181.941,358.342 L 781.983,358.342 L 782.983,347.342 C 782.983,347.342 471.983,340.342 306.983,324.342 C 252.072,319.017 211.669,306.879 181.941,291.892 L 181.941,358.342 z " />
            </g>
            <g
               transform="matrix(1.055449,0,0,1.011534,-56.0384,16.70264)"
               id="Layer_2">
              <polyline
                 style="fill:none;stroke:black;stroke-width:3"
                 id="polyline1944"
                 points="71.983,0.107 71.983,358.342 781.983,358.342 " />
              <path
                 style="fill:none;stroke:#909090;stroke-width:4"
                 id="path1946"
                 d="M 82.983,0.107 C 82.983,0.107 91.394,156.175 100.983,199.342 C 107.976,230.823 141.983,308.342 306.983,324.342 C 471.983,340.342 782.983,347.342 782.983,347.342" />
            </g>
        </g>
    </g>
    <g id="Uni">
        <path
           style=""
           d="m 11.999998,32.748535 0,11.501466 a 19.999998,9.9999933 0 0 0 20.000001,10 19.999998,9.9999933 0 0 0 20,-10 l 0,-11.501466 -20,9.001465 -10.000001,-4.501952 0,7.001953 -2.5,-2.500001 -2.5,2.500001 0,-9.25049 -5,-2.250976 z"
           fill="#000000"
           fill-opacity="1"
           fill-rule="nonzero"
           stroke-width="0"
           id="path4196" />
        <rect
           style=""
           width="32.897549"
           height="32.897549"
           x="31.861904"
           y="-3.2288425"
           transform="matrix(0.91192149,0.4103647,-0.91192149,0.4103647,0,0)"
           fill="#000000"
           fill-opacity="1"
           fill-rule="nonzero"
           stroke-width="0"
           id="rect4198" />
    </g>
  </defs>
  <use href="#power_law"/>
  <use href="#gafa" transform="scale(0.3 0.3) translate(50,500)"/>
  <text x="50" y="300"> AI / ML </text>
  <use href="#Uni" transform="translate(300,300)"/>
  <use href="#SO" transform="scale(0.2 0.2) translate(2000 1500)"/>
  <use href="#YouTube" transform="scale(0.3 0.3) translate(2000,1000)"/>
  <text x="700" y="400"> number of topics </text>
  <text x="0" y="50"> complexity </text>
  <text x="300" y="50"> power law of knowledge and players </text>
  

</svg>
